<svg width="280" height="239" fill="none" xmlns="http://www.w3.org/2000/svg"><g clip-path="url(#clip0)"><path d="M58.83 30.39c9.22.62 13.07-5.67 17.4-13.75 11.85-22.13 38.25-20 47.1-6.38 6.28 9.66 19.8 7.67 30.74 3.9 10.77-3.72 29.12-7.3 43.74-2.85 12.76 3.88 18 17.87 29.64 17.01 25.38-1.87 38.18 23.18 33.58 34.11-3 7.13-4.5 15.12-2.05 22.46 2.68 8.08 8.82 14.48 13.78 21.43 4.96 6.95 8.96 15.64 6.5 23.79-2.12 6.98-8.41 11.8-12.32 17.97-12.14 19.15-.13 48.51-16.3 64.48-11.58 11.43-30.44 8.8-46.64 10.98-13.5 1.81-26.2 7.49-39.66 9.7-27.22 4.5-54.71-5.4-82.31-5.69-9.72-.1-19.63.99-29.05-1.4-12.56-3.2-23.25-12.87-27.61-24.97-6.02-16.7-.32-36.02-7.11-52.42C12.73 135.4-.81 124.52.04 110.1c.53-8.98 6.66-16.49 10.88-24.45C17.2 73.83 8.9 27.05 58.83 30.39zM139.17 8.7c-2.42 0-4.38 1.5-4.38 3.36 0 1.85 1.97 3.2 4.38 3.36 7.88.52 7.88-2.66 7.88-4.52 0-2.96-5.46-2.2-7.88-2.2zm79.98 14.33c2.1 1.74 4.8 2.78 7.53 2.92.73.03 1.53-.02 2.09-.48.7-.57.77-1.74.15-2.4-.39-.4-.95-.6-1.48-.81-.9-.37-1.79-.9-2.3-1.71-.15-.24-.28-.51-.52-.65-1.52-.86-8.24.84-5.47 3.13zM232.57 26c.7.25 1.45.02 2.15-.2.45-.15 1-.47.88-.92-.06-.22-.26-.36-.46-.46-.92-.5-2.11-.86-3.03-.23-.93.63-.23 1.58.46 1.81zM264.6 89.3c.11 1.04.76 1.94 1.38 2.8 1.2 1.63 2.43 3.3 4.01 4.58a4.05 4.05 0 002.32 1.05 3.6 3.6 0 002.19-.79 6.96 6.96 0 002.82-4.8c.3-2.59-.91-5.12-2.32-7.33-.87-1.37-1.88-2.74-3.33-3.47-2.45-1.23-4.06-.16-4.74 2-.62 2-2.59 3.74-2.33 5.96zM4.8 149.75c-1.3 1.14-.13 4.45.24 6.64.12.66.27 1.34.68 1.86.57.71 1.51 1 2.4 1.27 1.56.45 3.46.84 4.65-.26.89-.82 1.02-2.15 1.01-3.35 0-1.1-.06-2.19-.17-3.28a3.42 3.42 0 00-.42-1.5c-.36-.58-1-.9-1.61-1.17-2.24-.95-5.5-1.33-6.79-.2zm78.59 83.05c-.77.15-1.67.48-1.79 1.24-.08.64.44 1.17.95 1.55 4.2 3.13 9.85 3.33 15.1 3.4.61.01 1.25.02 1.81-.22a2.33 2.33 0 001.14-3.04c-.19-.4-.49-.74-.8-1.05-4.22-4.11-11.16-2.93-16.41-1.88zm104.8-2.12c-4.73 3.47.06 6.56 6.04 4.27 3.22-1.24 6.31-2.46 9.62-3.29 1.07-.26 7.52-1.66 7.52-3.1 0-3.85-7.27-2.94-11.84-2.3a23.76 23.76 0 00-11.33 4.42z" fill="#ECF3FF"/><path d="M99.18 220.67c12.6 0 22.8-.95 22.8-2.13 0-1.17-10.2-2.13-22.8-2.13-12.6 0-22.8.96-22.8 2.13 0 1.18 10.2 2.13 22.8 2.13zM216.31 220.67c12.6 0 22.8-.95 22.8-2.13 0-1.17-10.2-2.13-22.8-2.13-12.59 0-22.8.96-22.8 2.13 0 1.18 10.21 2.13 22.8 2.13z" fill="#C8DBFB"/><path d="M264.49 68.57c-.06-.4-.14-.79-.21-1.16" stroke="#C8DBFB" stroke-linecap="round" stroke-linejoin="round"/><path d="M263.72 65.12c-4.07-13.85-17.04-12.51-28.76-12.49l-207.97.43c-19.63.05-17.73 28.39-2.36 28.35 8.84-.02 12.2 16.58-3.08 16.6-9.17.03-9.46 11.65-3.3 13.98" stroke="#C8DBFB" stroke-linecap="round" stroke-linejoin="round" stroke-dasharray="3.99 3.99"/><path d="M19.39 112.29c.37.06.76.1 1.18.1" stroke="#C8DBFB" stroke-linecap="round" stroke-linejoin="round"/><path d="M22.97 111.85a2.83 2.83 0 11-5.58.94 2.83 2.83 0 015.58-.94zM267.27 69.84a2.82 2.82 0 11-5.55-1 2.82 2.82 0 015.55 1zM51.77 91.21c-.4 2.3-1 4.54-1.72 6.75-1.57 4.77-3.73 9.37-5.9 13.9-1.15 2.38-5.77 7.86-8.25 8.9.3-6.18.32-13.41-.4-19.66-.7-6.01 1.47-10.57-.89-16.16l-.92-2.14c-1.18-2.65-2.34-5.32-2.7-8.18-.48-3.63.65-7.76 3.79-9.65 2.26-1.36 5.2-1.29 7.61-.22 2.42 1.07 4.35 3.02 5.82 5.21 4.11 6.11 4.86 14 3.56 21.25z" fill="#5193F4"/><path d="M40.8 71.17c4.62 6.52 5.02 14.12 5.42 22.1a42.6 42.6 0 01-5.46 23.02" stroke="#0B43A4" stroke-miterlimit="10" stroke-linecap="round" stroke-linejoin="round"/><path d="M40.6 191.5c-3.23-2.86-6.5-5.76-8.9-9.36-2.08-3.13-3.43-6.69-5.25-9.98-1.17-2.13-2.56-4.2-3.24-6.53-.68-2.34-.52-5.1 1.14-6.88 1.74-1.86 4.72-2.15 7.07-1.19 2.35.95 4.15 2.94 5.52 5.07a24.2 24.2 0 013.55 9.4c.46 3.02.35 6.11.82 9.13a30.55 30.55 0 002.58 8.1c1.08 2.33 3.82 6.5 4.52 8.9-1.94.96-6.42-5.43-7.8-6.66z" fill="#00AD9F"/><path d="M29.29 161.83c3.08 1.35 4.3 5.02 4.94 8.32.73 3.75.57 7.81 2.29 11.23 3.24 6.44 7.46 13.76 10.6 15.95" stroke="#00AD9F" stroke-miterlimit="10" stroke-linecap="round" stroke-linejoin="round"/><path d="M24.67 182.7c-2.68-1.06-6.28-1.5-8 .82-1.44 1.94-.7 4.7.3 6.9.85 1.86 1.91 3.75 3.68 4.76 1.21.69 2.64.9 4.02 1.06a96 96 0 0011.65.67c4.5 0 9.97 1.83 13.7 4.65-4.79-8.9-16.3-15.29-25.35-18.86z" fill="#0056EC"/><path d="M19.96 188.48c3.42.15 6.87.39 10.15 1.36 3.36 1 16.27 6.92 18.29 9.44" stroke="#0B43A4" stroke-miterlimit="10" stroke-linecap="round" stroke-linejoin="round"/><path d="M53.98 164.44a22.78 22.78 0 00-15.92-10.17c-4.75-.63-9.64.25-14.34-.73a18.49 18.49 0 01-11.95-8.55 18.54 18.54 0 01-1.8-14.59c1.1-3.66 3.62-7.15 7.27-8.32a11.6 11.6 0 016.19-.06c1.87.44 3.61 1.23 5.22 2.25 3.67 2.32 6.64 5.9 8.87 9.7 2.02 3.45 7.01 8.82 10.4 12.32 2 2.04 3.45 3.44 3.45 3.44 2.32 2.9 1.23 11.26 2.61 14.7z" fill="#52D2BC"/><path d="M16.17 132.7c11.43 5.15 23.89 11.91 32 21.48" stroke="#00AD9F" stroke-miterlimit="10" stroke-linecap="round" stroke-linejoin="round"/><path opacity=".2" d="M49.26 152.9s-17.02-13.81-20.62-28.62c3.67 2.32 6.64 5.9 8.87 9.7 2.02 3.45 7.01 8.82 10.41 12.32.4 1.85.85 4.03 1.34 6.6zM50.05 97.96c-1.57 4.77-3.73 9.37-5.9 13.9-1.15 2.38-5.77 7.86-8.25 8.9.3-6.18.32-13.41-.4-19.66-.7-6.01 1.47-10.57-.89-16.16l-.92-2.14c.21.07.43.15.63.24 3.89 1.66 5.68 5.77 6.01 9.76.28 3.29-.32 6.59-.76 9.86-.2 1.51-.37 3.06-.05 4.54l.01.04c.41 1.77 2.99 1.67 3.32-.12l1.03-5.48c.3-1.64.64-3.36 1.99-4.5a2.84 2.84 0 011.91-.72c1.11.05 1.8.7 2.27 1.54z" fill="#5275A0"/><path d="M49.26 149.44c-2.69-14.05-4.1-16.22-2.92-19.74 1.51-4.49.66-9 2.08-13.51 1.43-4.52 2.4-9.37 1.25-13.97-.36-1.45-1.1-3.03-2.85-3.1-.7-.02-1.38.27-1.9.72-1.35 1.14-1.69 2.86-2 4.5l-1.02 5.48c-.34 1.78-2.91 1.89-3.32.12v-.05c-.34-1.48-.17-3.02.03-4.53.45-3.28 1.04-6.58.77-9.87-.33-4-2.12-8.1-6.01-9.75a6.86 6.86 0 00-4.39-.35c-4.05 1.04-5.1 5-4.5 8.38.42 2.38 1.53 4.57 2.54 6.77 2.47 5.36.65 10.28 1 16.17.94 16.28 21.24 32.73 21.24 32.73z" fill="#7EE8D4"/><path d="M31.17 89.65c2 9.99 4.03 20.05 7.9 29.48 1.15 2.76 1.7 6.4 8.3 13.92" stroke="#00AD9F" stroke-miterlimit="10" stroke-linecap="round" stroke-linejoin="round"/><path d="M109.2 92.2c-2.08-2.36-3.99-4.77-6-7.08a62.33 62.33 0 00-4.11-4.37c-.73-.7-1.48-1.37-2.27-2.02a63.61 63.61 0 00-15.46-9.45c-3.36-1.44-6.91-2.62-9.77-4.92-2.85-2.29-4.9-6.05-3.96-9.58.7-2.55 2.86-4.54 5.34-5.44 2.48-.9 5.23-.84 7.8-.28 7.2 1.55 13.22 6.72 17.3 12.84.08.1.15.22.22.33 3 4.57 5.1 9.66 6.92 14.84.58 1.66 1.14 3.34 1.68 5 .83 2.5 3.37 7.67 2.3 10.14z" fill="#5193F4"/><path d="M76.27 55.07c7.85 1.5 13.41 6.7 19.23 12.17a42.61 42.61 0 0112.03 20.38" stroke="#0B43A4" stroke-miterlimit="10" stroke-linecap="round" stroke-linejoin="round"/><path opacity=".2" d="M103.2 85.12a9.3 9.3 0 00.11 2.45c-1.96-.45-3.32-3.5-4.22-6.82a51.25 51.25 0 01-1.45-8.33c-.27-3.4-.05-6.84.65-10.19 3 4.57 5.1 9.66 6.92 14.84a61.21 61.21 0 00-1.6 5.64c-.2.8-.34 1.6-.4 2.4z" fill="#5275A0"/><path d="M116.82 56.77c-.66 2.94-2.44 5.49-4 8.07a63.56 63.56 0 00-7.55 18.46c-.39 1.62-.6 3.21-.3 4.86-3.86-.89-5.4-11.89-5.67-15.16a35.62 35.62 0 012.96-17.31c1.06-2.37 2.43-4.69 4.53-6.2 2.1-1.52 5.08-2.05 7.3-.73 1.34.8 2.2 2.12 2.62 3.62.41 1.4.43 2.97.11 4.39z" fill="#52D2BC"/><path d="M103.5 84.92c-2.4-6.05-.94-18.85 2.92-26.89 1.16-2.42 2.82-4.7 5.14-6.05" stroke="#00AD9F" stroke-miterlimit="10" stroke-linecap="round" stroke-linejoin="round"/><path opacity=".2" d="M116.82 56.77c-.66 2.94-2.44 5.49-4 8.07a62.6 62.6 0 00-2.33 4.17 14.13 14.13 0 01-1.98-5.8c-.32-3.43.99-7.1 3.77-9.11a10.1 10.1 0 014.43-1.72c.41 1.4.43 2.97.11 4.39z" fill="#5275A0"/><path d="M139.15 82.38a12.42 12.42 0 01-1 3.25c-1.72 3.72-5.32 6.9-10.72 9.5l-.37-7.45c-.26-6.74-7.57-10.46-12.2-15.37-2.35-2.5-4.14-5.67-4.47-9.1-.32-3.43.99-7.1 3.77-9.11 2.34-1.69 5.4-2.06 8.27-1.84 4.64.37 9.32 2.31 12.2 5.94.13.13.23.28.34.42 1.77 2.41 2.67 5.35 3.34 8.28 1.16 5.07 1.68 10.34.84 15.48z" fill="#00AD9F"/><path d="M116.16 57.7c5.06 2.63 10.13 5.79 13.07 10.66 4.11 6.8 3.22 15.65.05 22.94" stroke="#00AD9F" stroke-miterlimit="10" stroke-linecap="round" stroke-linejoin="round"/><path d="M223.81 125.83c3.23-5.31 1.58-12.14 2.7-18.25.87-4.7 3.48-9.05 7.22-12.02 2.35-1.87 5.65-3.2 8.3-1.8.57.3 1.25.73 1.8.39.34-.2.47-.62.55-1 .67-3.3-.92-6.9.38-10 .7-1.68 2.14-2.93 3.67-3.9a20 20 0 019.9-3.1c.92-.04 1.89 0 2.72.4 1.5.75 2.18 2.63 1.98 4.29-.2 1.66-1.12 3.15-2.13 4.49-3.39 4.43-8.35 8.25-9 13.78-.09.7-.09 1.44.23 2.07.31.6.9 1.04 1.22 1.63 1.04 1.92-.98 4.1-2.94 5.04-1.8.86-3.75 1.4-5.74 1.58-1.36.13-2.9.16-3.84 1.17-1.71 1.87.26 4.84-.1 7.35-.23 1.56-1.36 2.83-2.5 3.92a45.22 45.22 0 01-6.9 5.45c-2.01 1.29-4.13 2.42-5.9 4-1.78 1.58-3.22 3.72-3.33 6.1" fill="#52D2BC"/><path d="M228.06 120.66c.53-2.57 1.72-4.96 2.9-7.3 1.86-3.66 3.75-7.38 6.54-10.38 2.13-2.28 4.72-4.09 6.88-6.34a23.63 23.63 0 003.88-5.39c.56-1.07 1.04-2.19 1.8-3.13.89-1.11 2.11-1.9 3.18-2.86a13.6 13.6 0 003.37-4.66" stroke="#00AD9F" stroke-miterlimit="10" stroke-linecap="round" stroke-linejoin="round"/><path d="M270.13 129.5c-.73 2.8-1.8 5.57-3.66 7.79a16.6 16.6 0 01-4.61 3.72c-.9.52-1.84.96-2.8 1.37a33.52 33.52 0 01-11.66 2.58c-5.82.22-11.82-1.07-17.41.6a17.17 17.17 0 00-9.96 7.88l.76-4.84c1.41-5.2 2.85-10.5 5.73-15.06a39.68 39.68 0 016.84-7.9 57.07 57.07 0 0113.67-9.55c4.06-1.97 8.56-3.36 13.05-2.81 4.48.54 8.88 3.37 10.27 7.66.9 2.76.51 5.77-.22 8.57z" fill="#5193F4"/><path d="M224.6 144.92a35.35 35.35 0 0117.96-13.63c4.51-1.51 9.3-2.08 13.88-3.4 4.57-1.33 9.15-3.57 11.83-7.5" stroke="#0B43A4" stroke-miterlimit="10" stroke-linecap="round" stroke-linejoin="round"/><path d="M227.42 191.39c.26-6.51 3.62-12.52 7.7-17.59 3.41-4.23 7.52-8.1 12.6-10.03 1.6-.6 3.34-1 5-.6 1.65.4 3.15 1.82 3.17 3.52.03 1.44-.93 2.7-1.95 3.7-3.34 3.35-7.65 5.5-11.7 7.94-6.95 4.2-13.56 9.8-16.31 17.44" fill="#52D2BC"/><path d="M230 185.7c4.24-9.48 15.24-17.95 22.49-19" stroke="#00AD9F" stroke-miterlimit="10" stroke-linecap="round" stroke-linejoin="round"/><path d="M224.77 196.56c-.06-1.1 3.5-3.94 4.3-4.67a41.1 41.1 0 0115.3-8.73c2.24-.71 4.64-1.22 6.9-.68 2.26.54 4.33 2.4 4.55 4.82.21 2.36-1.37 4.68-3.4 5.81-2.02 1.15-4.38 1.32-6.63 1.2-3.48-.21-6.9-1.08-10.4-1.05-3.5.03-8.4.38-10.62 3.3z" fill="#00AD9F"/><path d="M228.39 193.25c7.15-3.87 17.95-6.39 25.8-5.44" stroke="#00AD9F" stroke-miterlimit="10" stroke-linecap="round" stroke-linejoin="round"/><path opacity=".2" d="M139.15 82.38a12.46 12.46 0 01-1 3.25 56.7 56.7 0 01-5.24-20.77c-.15-2.3.5-4.67 1.72-6.66.13.13.23.28.34.42 1.76 2.41 2.67 5.35 3.34 8.28 1.16 5.07 1.68 10.34.84 15.48z" fill="#5275A0"/><path d="M163.87 82.08c5.33-1.9 10.88-3.4 15.72-6.33a13.81 13.81 0 003.93-3.27 6.6 6.6 0 001.45-4.8c-.24-1.71-1.34-3.37-.97-5.07.25-1.12 1.09-2 1.73-2.95a9.43 9.43 0 001.21-7.83c-.84-2.81-2.94-5.07-4.14-7.74a12.93 12.93 0 01-1-7.02c-4.48.06-8.56 2.5-12.96 3.32-3.37.63-6.87.29-10.2 1.05a16.1 16.1 0 00-12.01 12.93 8.88 8.88 0 00-7.82 2.62 11.52 11.52 0 00-3.07 8.41C137.1 87.48 149.75 99 149.75 99s12.08-16.2 14.12-16.92z" fill="#7EE8D4"/><path d="M151.93 81.92c-.55-5.44 1.35-10.83 3.54-15.85 2.13-4.89 4.58-9.68 7.87-13.88 3.3-4.2 7.48-7.8 12.41-9.83M156.68 45.7a43.96 43.96 0 001.1 15.43M158.69 59.39c5.54-3.56 14.07-5.72 20.65-5.34M145.12 60.3c6.68 2.81 6.95 12.63 7.14 15.42M154.07 69.48c5.11-3.67 12.5-4.77 17.93-3.4M168.01 43.18a8.07 8.07 0 00-1.76 5.7M167.7 47.5c2.36-1.2 5.5-1.48 8.87-.64" stroke="#00AD9F" stroke-miterlimit="10" stroke-linecap="round" stroke-linejoin="round"/><path d="M36.34 58.19c.63-.04 4.91-3.2 6.56-4.28.46-.3.93-.6 1.25-1.06.33-.45.48-1.06.24-1.56-.3-.62-.77-1.24-2-1.24-2.13 0-2.87.7-3.9 1.78-3.43 3.54-2.15 6.36-2.15 6.36zM55.53 70.97c1.87.84 3.86 1.67 5.88 1.4.79-.1 1.65-.45 1.91-1.2.22-.63-.08-1.37-.59-1.82a4.2 4.2 0 00-1.83-.82c-2.48-.61-5.97-.27-8.42.42 0 0 1.94 1.52 3.05 2.02zM67.8 43.44c-.83-.52-1.75-1.22-1.74-2.2 0-1 1.02-1.74 2-1.75 1 0 1.9.53 2.65 1.19 3.14 2.75 2.75 5.89 2.75 5.89s-4.73-2.54-5.66-3.13zM70.28 35.05a4.01 4.01 0 01-1.92-1.36c-.2-.33-.32-.74-.2-1.1.22-.62.6-1.16 2.14-.89 4.87.89 5.93 4.22 5.93 4.22s-4.66-.32-5.95-.87zM84.53 42.42a7.68 7.68 0 005.2-2.66c.47-.58.9-1.21 1.05-1.94.15-.73-.02-1.55-.58-2.03-.68-.6-1.77-.5-2.51 0a5.04 5.04 0 00-1.63 2.11 50.29 50.29 0 00-1.53 4.52z" fill="#4A49CA"/><path d="M49.67 113.6L35.5 101.1c-2.52-2.22-5.09-4.5-6.68-7.46-3.43-6.35-1.45-14.6 3.18-20.15 4.63-5.54 11.41-8.8 18.23-11.18 6.82-2.38 13.91-4.05 20.41-7.2 4.08-1.97 8.17-4.91 9.3-9.3.66-2.64.1-5.57-1.5-7.77a9.4 9.4 0 00-6.95-3.78M87.84 37.9c-1.3 3.96-6.33 6.37-8.62 9.8" stroke="#0B43A4" stroke-miterlimit="10" stroke-linecap="round" stroke-linejoin="round"/><path d="M69.77 42.45c1 1.05 2.18 1.91 3.05 3.06 1.83 2.44 1.97 6.4-.73 8.85M44.32 64.66a26.94 26.94 0 0014.91 5.55M34.77 70.5a14.7 14.7 0 014.95-16.03" stroke="#0B43A4" stroke-miterlimit="10" stroke-linecap="round" stroke-linejoin="round"/><path d="M187.22 46.58c-.22-.7-.2-1.56.3-2.09.42-.41 1.1-.6 1.64-.36 4.15 1.82 3.7 8.3 3.7 8.3s-3.93-.57-5.64-5.85zM187.12 58.7c-2.68 4.85 6.85 4.48 10.3 1.63 0 0-7.98-5.8-10.3-1.63zM199.18 46.95c-.65-.88-.88-2.2-.17-3.05.53-.62 1.44-.82 2.24-.66.8.15 2 .9 2.52 1.53 3.14 3.9 1.66 7.72 1.66 7.72s-5.2-4.09-6.25-5.54zM237.04 58.96c-.22-.76-.17-1.68.41-2.2.37-.34.9-.46 1.4-.43.49.04.97.22 1.42.43a4.53 4.53 0 012.2 2.18c1.18 2.43.37 5.43.37 5.43s-5.22-3.53-5.8-5.41zM225.13 67.85a6.12 6.12 0 00-6.32-1.01c-.53.23-1.02.55-1.35 1.01-.76 1.05-.5 2.57.3 3.6a7.85 7.85 0 003.13 2.16c2.13.96 5.42 1.16 7.68 1.74 0-.01-.01-4.5-3.44-7.5z" fill="#4A49CA"/><path d="M190.2 47.63c1.4 4.59 5.37 8.05 9.79 9.92 4.42 1.88 9.29 2.38 14.08 2.68 4.8.31 9.64.47 14.27 1.72 4.52 1.23 9.02 3.78 10.95 8.04 2.36 5.19.27 11.38-3.04 16.02-3.31 4.63-7.77 8.36-10.97 13.07-1.47 2.16-2.7 4.7-2.4 7.3.39 3.45 3.31 6 6.02 8.2M201.24 45.94c3.17 3.5 5.71 9 6.33 13.7" stroke="#0B43A4" stroke-miterlimit="10" stroke-linecap="round" stroke-linejoin="round"/><path d="M190.56 59.5c1.82.49 3.66.97 5.54.98a8.46 8.46 0 005.4-2.34M240.15 59.24a9.38 9.38 0 012.83 6.32c.09 2.36-1.22 5.23-2.8 6.99M222.35 69.97a94.78 94.78 0 0010.14 8.3c1.72 1.22 5.14 2.78 6.66 2.37" stroke="#0B43A4" stroke-miterlimit="10" stroke-linecap="round" stroke-linejoin="round"/><path opacity=".2" d="M261.86 141.01c-.9.52-1.84.96-2.79 1.37a33.52 33.52 0 01-11.66 2.58c-5.83.22-11.83-1.07-17.42.6a17.16 17.16 0 00-6.87 3.98l-.59.3c-.46-3.94 9.38-9.08 12.37-10.42a35.64 35.64 0 0117.31-3.02c2.59.2 5.24.71 7.37 2.18a7.9 7.9 0 012.28 2.43z" fill="#5275A0"/><path d="M252.2 138.76c2.6.2 5.24.71 7.37 2.18 2.13 1.47 3.63 4.1 3.14 6.64-.58 2.96-3.64 4.89-6.64 5.25-3 .36-5.99-.46-8.94-1.07a63.68 63.68 0 00-19.93-.9c-1.66.17-3.23.5-4.67 1.35-.47-3.94 9.38-9.09 12.37-10.43a35.57 35.57 0 0117.3-3.02z" fill="#52D2BC"/><path d="M225.09 149.72c4.88-4.29 17.43-7.2 26.3-6.27 2.68.29 5.37 1.08 7.43 2.82" stroke="#00AD9F" stroke-miterlimit="10" stroke-linecap="round" stroke-linejoin="round"/><path d="M215.96 101.47l47.72-.1a10.14 10.14 0 01.04 20.27l-32.64.07M71.57 136.5l-33.37.08a5.72 5.72 0 10.02 11.44l9.73-.02" stroke="#0B43A4" stroke-miterlimit="10" stroke-linecap="round" stroke-linejoin="round" stroke-dasharray="4 4"/><path d="M18.3 162.34c-11.43.03-11.66 17.08 2.88 17.05l214.38-.44c9-.02 9.94-14.06-1.18-14.04-22.14.05-22.87-10.51-10.58-10.54" stroke="#C8DBFB" stroke-miterlimit="10" stroke-linecap="round" stroke-linejoin="round" stroke-dasharray="4 4"/><path d="M20.98 161.87a2.83 2.83 0 11-5.58.95 2.83 2.83 0 015.58-.95z" fill="#5193F4"/><path d="M229.29 154.45a2.83 2.83 0 11-5.58.95 2.83 2.83 0 015.58-.95z" fill="#0B43A4"/><path opacity=".2" d="M232.36 203.76l-177.51.36a4.28 4.28 0 01-4.3-4.27l-.24-117.6c0-2.36 1.91-4.29 4.28-4.29l177.51-.37c2.37 0 4.3 1.92 4.3 4.28l.24 117.6c0 2.36-1.9 4.28-4.28 4.29z" fill="#5275A0"/><path d="M228.89 201.51l-177.52.37a4.28 4.28 0 01-4.3-4.28L46.85 80c0-2.36 1.9-4.29 4.27-4.29l177.52-.36c2.36 0 4.3 1.9 4.3 4.27l.23 117.6a4.29 4.29 0 01-4.27 4.3z" fill="#fff"/><path d="M228.34 75.34l-176.75.37a4.67 4.67 0 00-4.66 4.67v4.06l186.1-.38-.01-4.06c-.01-2.58-2.1-4.67-4.68-4.66z" fill="#0056EC"/><path d="M51.8 201.88l26.7-.06-.24-117.44-31.37.06.23 112.79c0 2.57 2.1 4.65 4.68 4.65z" fill="#C8DBFB"/><path d="M228.68 76.52c1.71 0 3.1 1.4 3.1 3.1l.25 117.6c0 .83-.32 1.6-.9 2.2-.6.59-1.37.91-2.2.91l-177.52.37c-1.71 0-3.1-1.4-3.11-3.1L48.06 80c0-.83.32-1.6.9-2.2a3.06 3.06 0 012.2-.91l177.5-.37h.02zm0-1.18h-.01l-177.51.37a4.29 4.29 0 00-4.28 4.3l.24 117.58a4.29 4.29 0 004.29 4.28h.01l177.51-.37a4.29 4.29 0 004.28-4.3l-.24-117.58a4.29 4.29 0 00-4.3-4.28z" fill="#0056EC"/><path d="M74 192.9l-20.59.04c-.9 0-1.64-.73-1.64-1.64v-.2c0-.92.73-1.65 1.64-1.65l20.58-.05c.91 0 1.65.74 1.65 1.64v.21c0 .9-.73 1.65-1.64 1.65zM71.53 113.22l-17.53.04a3.02 3.02 0 01-3.02-3.01l-.03-17.52a3.02 3.02 0 013-3.02l17.53-.04a3.02 3.02 0 013.02 3l.04 17.53a3.01 3.01 0 01-3.01 3.02z" fill="#fff"/><path d="M146.54 165.7l-61.05.13a2.15 2.15 0 01-2.15-2.14v-.27c0-1.18.95-2.14 2.14-2.15l61.05-.12c1.18 0 2.15.95 2.15 2.14v.26c0 1.2-.95 2.16-2.14 2.16zM143.01 96.15l-48.24.1a2.15 2.15 0 01-2.15-2.14v-.26c0-1.19.95-2.15 2.14-2.16l48.24-.1c1.19 0 2.15.96 2.15 2.14V94c0 1.2-.95 2.15-2.14 2.15zM219.28 144.95l-64.33.13a2.15 2.15 0 01-2.15-2.14v-.26c0-1.19.95-2.15 2.14-2.16l64.32-.13c1.19 0 2.15.96 2.16 2.14v.27c0 1.18-.96 2.14-2.14 2.15zM146.56 175.14l-61.05.12a2.15 2.15 0 01-2.15-2.14v-.26c0-1.19.95-2.15 2.14-2.16l61.05-.12c1.18 0 2.14.95 2.15 2.14v.27c0 1.18-.96 2.14-2.14 2.15zM146.57 184.57l-61.04.12a2.15 2.15 0 01-2.16-2.14v-.27c0-1.18.96-2.14 2.14-2.15l61.05-.12c1.19 0 2.15.95 2.16 2.14v.26c0 1.19-.96 2.16-2.15 2.16zM217.97 190.71l-61.53.13a3.54 3.54 0 01-3.55-3.54l-.06-26.42a3.54 3.54 0 013.54-3.55l61.53-.13a3.54 3.54 0 013.55 3.54l.06 26.42a3.54 3.54 0 01-3.54 3.55zM57.13 79.98a1.5 1.5 0 11-3 0 1.5 1.5 0 013 0zM62 81.48a1.5 1.5 0 100-3.01 1.5 1.5 0 000 3zM69.87 79.95a1.5 1.5 0 11-3 0 1.5 1.5 0 013 0zM90.26 94.43a4.35 4.35 0 10-8.66-.86 4.35 4.35 0 008.66.86z" fill="#C8DBFB"/><path d="M72.75 116.9l-19.26.04a.81.81 0 01-.82-.81v-.1c0-.45.36-.81.81-.82l19.26-.04c.45 0 .81.36.82.81v.1c0 .45-.36.81-.81.81zM72.75 120.58l-19.26.04a.81.81 0 01-.81-.81v-.1c0-.45.36-.8.8-.81l19.27-.05c.45 0 .8.36.81.81v.1c0 .45-.36.81-.8.82z" fill="#fff"/><path d="M94.8 128.35l-5.44.06.04 22.81-4.7.02a3 3 0 01-3-3l-.1-42.2a3.03 3.03 0 013.03-3.04l10.12-.02.06 25.37z" fill="#C8DBFB"/><path d="M130.14 102.9v.6a2.96 2.96 0 012.96 2.95l.08 41.14a2.96 2.96 0 01-2.95 2.97l-45 .1a2.96 2.96 0 01-2.95-2.96l-.09-41.14a2.96 2.96 0 012.95-2.97l45-.1v-.58zm0 0l-45 .1a3.54 3.54 0 00-3.54 3.55l.09 41.15c0 1.96 1.59 3.54 3.54 3.54l45-.1c1.96 0 3.54-1.6 3.54-3.55l-.09-41.14a3.54 3.54 0 00-3.54-3.54zM205.26 136.76l-60-13.56a3.55 3.55 0 01-2.69-4.24l6.75-29.87a3.55 3.55 0 014.25-2.68l60 13.57a3.55 3.55 0 012.69 4.24l-6.75 29.87a3.54 3.54 0 01-4.25 2.67z" fill="#C8DBFB"/><path d="M89.13 218l-8.4.02-2.06-10.7 12.47-.02-2.01 10.7z" fill="#0056EC"/><path d="M81 207.31c0 .88-.17 2.34.41 2.36.59.03.35-1.39 1-1.35.43.03-.19 4.65 1.41 4.76 1.1.08.9-2.26 1.01-3.73.08-1 1.35-.8 1.36-.14 0 .74-.04 1.22 0 2.06.06 1.4 2.2 1.03 2.13-.84-.08-1.86 0-3.12 0-3.12H81z" fill="#C8DBFB"/><path d="M78.99 213.78a2.3 2.3 0 01-.5-.06 1.76 1.76 0 01-1.29-.97c-.85-1.81 1.4-5.21 1.49-5.36l.12.6c-.02.04-1.99 2.97-1.21 4.6.18.39.5.63 1 .74.13.03.27.04.41.04 3.03 0 8.2-5.64 8.26-5.7.2-.26.6-.02.46.2-.24.26-5.49 5.9-8.74 5.9z" fill="#0C2340"/><path opacity=".2" d="M167.22 67.49c-11.93-.46-28.36 8.37-22.53 29.95-.13 1.82.97 3.13 2.13 2.77 1.16-.35.13-3.81.13-3.81 2-16.05 5.7-18.82 12.01-18.76l14.8-.03c3.66.53 10.31 3.1 11.31 15.94l3.69.67c.29-9.28-1.96-25.98-21.54-26.73z" fill="#5275A0"/><path d="M167.22 65.6c-11.93-.45-28.36 8.38-22.53 29.96l2.26-1.05c2-16.04 5.7-18.82 12.01-18.76l14.8-.03c3.66.54 10.49 3.8 11.49 16.63h3.5c.3-9.29-1.95-26-21.53-26.74z" fill="#EF832B"/><path d="M164.78 65.96l-1.77 3.9s.21 2.19 2.37 2.14c2.15-.05 2.44-1.04 2.44-1.04l.28-4.47-3.32-.53z" fill="#FFB9A3"/><path d="M173.9 62.71c-2.02 3.57-2.92 4.68-5.56 5.22-3.42.7-7.26-1.61-5.48-7.3 1.45-4.63 3.66-3.92 5.81-3.74 2.16.17 7.4 1.96 5.23 5.82z" fill="#FFB9A3"/><path d="M165.86 59.89c-.54-.28-1.23-.04-1.65.4a1.8 1.8 0 00-.45 1.72c-.82.01-1.55.82-1.47 1.64-.57-1.31-.26-2.69-.38-4.04-.1-1.35.04-2.81.91-3.84.36-.43.82-.75 1.31-1.01 1.86-1 4.2-1.02 6.1-.1.38.2 1.36.82 2.73.49 2.6-.63 4.13 1.13 2.56 2.78.5.18 1.06.4 1.28.9.06.12.1.27.02.38-.06.08-.15.12-.25.15-.43.15-.91.18-1.37.1.18.15 1.14.21 1.43.78.78 1.5-2.3.74-2.77.59.54.1 1.94 1.22 1.5 2-.1.15-2 1.25-3.99-1.07a3.67 3.67 0 00-1.73-1.22c-.53-.14-1.1.05-1.63.25-.38.14-1.35.74-1.63.39-.29-.38.1-.98-.52-1.29z" fill="#0C2340"/><path d="M185.63 92.35c-.53 1.82-1.06 2-.42 2.29.64.29 1.16-.73 1.16-.73l2.96.59s-.67-1.93-1.13-2.16c-.47-.23-2.57 0-2.57 0zM146.95 94.51c.4.96.5.97 1.04 2.13 1.03 2.2-1.39 5.69-2.88 1.88-.42-1.04-.42-2.96-.42-2.96l2.26-1.05z" fill="#FFB9A3"/><path d="M170.08 54.98c2.02.11 4.51-1.31 6.1.52.15.17.44-.06.31-.25-1.51-2.17-4.33-.55-6.4-.61-.23 0-.22.33-.01.34zM170.9 53.87c-1.39.24-2.72-.42-4.1-.2a6.03 6.03 0 00-2.99 1.5c-.22.18.07.56.32.4 1.19-.79 2.33-1.47 3.82-1.35 1.08.07 2 .4 3.07.07.27-.08.15-.47-.13-.42zM163.02 55.75a3.26 3.26 0 00-1.65 2.58c-.08.84-.1 2.76.74 3.23.2.11.41-.15.25-.32-.55-.55-.6-2.03-.55-2.73a3.2 3.2 0 011.35-2.52c.14-.1.02-.33-.14-.24zM177.99 59.08c-.5-.87-1.78-1.64-2.77-1.09-.15.09-.08.32.1.32.42.01.82-.04 1.24.09.47.15.88.42 1.16.83.12.16.37.02.27-.15z" fill="#0C2340"/><path d="M112.34 149.07c6.26 2.3 11.7 9.47 10.44 14.7-1.4 5.89-5.47 8.43-5.47 8.43l-1.28-2.36s3.25-5.08 2.97-7.48c-.46-3.85-5.3-6.42-5.3-6.42l-1.36-6.87z" fill="#0B43A4"/><path d="M96.94 215.57s-3.84 1.55-4.8 2.43l7.6-.02v-2.42h-2.8zM113.76 215.42s1.09 1.26 1.29 2.53l-5.2.01c.1-.87.47-1.71.97-2.53l2.94-.01z" fill="#0C2340"/><path d="M114.07 215.53h-3.54c.07-4.17-.8-18.4-1.62-29.05-.5-6.24-.98-11.25-1.26-12.27l1.9-.42 7.17-1.59c1.22 5.6-1.6 31.34-2.65 43.33z" fill="#047F76"/><path d="M101.04 173.99c-2.76 4.35-3.48 35.83-4.63 41.67l3.36.19s3.86-19.85 12.09-42.16l-10.82.3z" fill="#009790"/><path opacity=".2" d="M113.27 173.69c-1.62 4.4-3.08 8.72-4.36 12.8-.5-6.25-.98-11.26-1.26-12.28l1.9-.42 3.72-.1z" fill="#5275A0"/><path d="M101.04 173.99c-2.76 4.35-3.48 35.83-4.63 41.67l3.36.19s3.86-19.85 12.09-42.16l-10.82.3z" fill="#009790"/><path d="M103.15 138.85s-2.15 8.2 3.23 8.2l-.32 2.08 4.08.45-.88-2.92s.8-5.15.86-6.09c.1-1.73-4.77-4.8-6.97-1.72z" fill="#FFB9A3"/><path d="M89.86 129.65h-1.6l.02 6.7h1.59l-.01-6.7z" fill="#0C2340"/><path d="M93.6 129.64l-9.09.02c-.64 0-1.15-.51-1.15-1.15v-.23c0-.64.5-1.16 1.15-1.16l9.1-.02c.63 0 1.15.52 1.15 1.15v.24c0 .63-.51 1.15-1.15 1.15z" fill="#0056EC"/><path d="M87.84 138.1c-.04-1.52-1.3-1.12-.6-3.6.42-1.53 3.59.25 3.2 1.3-.4 1.07-.85 2.75-.85 2.75l-1.75-.45z" fill="#FFB9A3"/><path d="M106.42 148.66c-8.04.53-8.58 3.24-12.17 2.82-5.33-.63-4.4-10.52-3.74-14.07h-3.18s-5.73 22.54 12.38 18.37c-.7 3.95 3.81 10.4-.56 18.22 6.87 1.87 13.29 2.32 18.78-.03-.96-1.3 1.97-14.4-3.77-23.81-1.12-1.85-7.15-1.54-7.74-1.5z" fill="#0056EC"/><path d="M106.42 148.66c-8.04.53-8.58 3.24-12.17 2.82-5.33-.63-4.4-10.52-3.74-14.07h-3.18s-5.73 22.54 12.38 18.37c-.7 3.95 3.81 10.4-.56 18.22 6.87 1.87 13.29 2.32 18.78-.03-.96-1.3 1.97-14.4-3.77-23.81-1.12-1.85-7.15-1.54-7.74-1.5z" fill="#0056EC"/><path d="M105.3 140.42c.53.14 1.14.24 1.42.68.19.29.17.65.16.99a.8.8 0 011.56.18c0 .17-.05.33-.12.5-.16.4-.36.77-.6 1.13.66.25 1.22 2.17 1.54 2.76 1.1-.27 3.56-1.22 3.78-5.13.1-1.83-.46-4.01-2.44-5.22-1.4-.85-3.7-.87-5.3-.46-1.3.33-3.37 1.63-2.4 3.14.48.76 1.54 1.2 2.4 1.43z" fill="#EF832B"/><path d="M112.2 137.93c.75-.25 1.7-.12 2.15.51.34.49.31 1.13.43 1.71.05.28.15.57.37.76.26.23.63.3.99.3.87.06 1.74-.06 2.6.1.85.14 1.72.62 1.97 1.41.13.44.05.93.22 1.36.24.65.93 1.02 1.53 1.4a9.98 9.98 0 013.16 3.14c.5.8.88 1.68.94 2.61.06.93.73 2.15.55 3.06-.2.99-1.16 2.32-3.07 2.93-3.3 1.06-4.36 1.53-7.52-.36-.39-.22-1.13-1-1.48-1.27a1.68 1.68 0 01-.54-.86c-.26-.9.05-1.88.52-2.71.47-.83 1.11-1.56 1.6-2.38.29-.5.52-1.04.5-1.6a.87.87 0 00-.22-.6.99.99 0 00-.51-.22c-.7-.14-1.47 0-2.1-.3a1.47 1.47 0 01-.75-1.69c.12-.42.45-.78.53-1.22.13-.62-.25-1.26-.8-1.62a4.6 4.6 0 00-1.86-.62c-.33-.05-.66-.1-.92-.3a1.22 1.22 0 01-.47-1.01c.03-1.23 1.02-2.14 2.18-2.53z" fill="#EF832B"/><path d="M111.6 141.23c3.98.86-1.04 4.63 1.06 6.44.6.51 1.3.35 2 .45 2.7.37 1.23 2.2 1.04 3.64-.03.22.33.26.38.05.23-.99 1.14-2.2.67-3.26-.41-.93-1.44-.82-2.28-.85-1.06-.03-2.22 0-1.82-2.1.08-.46.46-.93.64-1.37.2-.51.35-1.01.24-1.57-.2-.93-.98-1.48-1.88-1.63-.12-.03-.18.17-.05.2zM103.4 136.36c3.08-1.56 6.13-1.25 8.72 1.04.18.15.41-.09.26-.26a6.8 6.8 0 00-9.05-.93c-.1.07-.02.2.08.15z" fill="#EF832B"/><path d="M206.45 145.98l-1.33 2.68 3.25 1.33.34-3.09-2.26-.92z" fill="#FFB9A3"/><path d="M208.4 137.28c-7.36 3.2-4.34 10.98.14 10.07 2.19-.44 3.29-7.48 3.29-7.48l-3.42-2.6z" fill="#FFB9A3"/><path d="M210.86 136.17c-.25-.44-.48-.93-.88-1.25-.4-.31-1.03-.42-1.4-.07-.5.46-.2 1.32.3 1.77-.44.06-.95-.25-1.27.06-.24.22-.16.62-.02.92.33.7.86 1.32 1.51 1.73-.37.21-.8.63-.58 1 .07.1.17.16.23.26.14.24 0 .55-.14.78-.23.38-.49.76-.75 1.12.25-.35.87-.21 1.06.18.18.39.02.87-.27 1.19-.16.17-.36.32-.6.37-.2.05-1.1 2.81-.4 3.35.86.67 3.8.1 4.22-.66.42.46 1.04.8 1.65.68.62-.12 1.08-.88.75-1.4.66.23 1.47.02 1.93-.52.45-.54.52-1.38.16-1.98.35-.11.43-.6.34-.96a2.24 2.24 0 00-1.53-1.58c.37.01.67-.37.68-.74.02-.37-.17-.72-.4-1.01-.7-.86-1.52-1.08-2.54-1.21-1.03-.13-1.6-1.18-2.05-2.03z" fill="#4A49CA"/><path d="M203.95 215.06s-4.3 2.07-4.89 2.71c0 0 8.49.39 9.15-.01.67-.4-1.35-2.7-1.35-2.7h-2.9zM220 212.72s-3.8 2.92-4.23 3.67c0 0 8.94-1.33 8.94-1.91 0-.59-1.88-2.37-1.88-2.37l-2.84.6z" fill="#0C2340"/><path d="M208.12 175.08c-.16.88-6.06 24.18 10.83 38.16l4.9-1.12s-5.7-5.34-8.39-14.96c-2.53-9.09-.52-9.98 1-14.98 1.69-5.54.43-9.56.43-9.56l-8.77 2.46z" fill="#D8742A"/><path d="M200.05 175.01c-2.68 6.4-7.28 28.21 2.74 40.49l5-.01s-3.94-4.32-4.38-14.35c-.44-10.02 2.1-14.42 3.9-17.72 1.8-3.31 3.47-8.93 3.47-8.93l-10.73.52z" fill="#EF832B"/><path d="M196.52 135.34c-1.33 4.68-1.76 13.34 4.9 16.83l4.45-1.09s-8.04-4.21-6.32-14.85l-3.03-.9z" fill="#0B43A4"/><path d="M184.24 132.94l3.46-.42s-.42 14.52 16.36 15.75c12.8.93 13.81 24.96 13.81 24.96-4.13 2.78-11.05 3.63-19.93 2.99 0 0 .56-17.14-.85-21.84 0 0-13.94-4.39-12.85-21.44z" fill="#0056EC"/><path d="M180.01 130.3c-.58.68 1.86 1.54 4.23 2.64l3.04-.37s.04-.6 0-1.24c-.03-.63-.35-.99-.71-.45-.36.55-1.9.73-2.62.23-.73-.5-3.35-1.48-3.94-.8zM196.52 135.34c-1.11-1.1-.81-1.03-.81-1.03l3.39.77s.74-1.66 1.38-1.7c.63-.05-.48 1.14-.22 1.58.25.44-.7 1.27-.7 1.27l-3.04-.9z" fill="#FFB9A3"/><path d="M212.76 137.77c.7.18 1.4.25 1.99.73.57.47.83 1.28.41 1.93-.2.31.27.55.48.28.52-.69.38-1.63-.15-2.29-.62-.75-1.75-1.06-2.69-.96-.16.02-.22.27-.04.31zM215.83 144.07c.46.27.84.7.65 1.28-.18.52-.72.84-1.14 1.14-.21.14-.03.46.2.34.63-.34 1.3-.8 1.4-1.59.1-.68-.36-1.19-.93-1.5-.2-.1-.38.2-.18.33zM208.08 147.58c1.57.98 3.78.82 5.07-.55.16-.17-.06-.49-.26-.34a4.52 4.52 0 01-4.68.68c-.14-.07-.27.13-.13.21z" fill="#4A49CA"/><path d="M216.04 138.8c.9.85 0 2.02-.58 2.75-.13.16.07.38.23.23.51-.47 1.03-1 1.1-1.74a1.35 1.35 0 00-.67-1.35c-.06-.03-.14.06-.08.11z" fill="#4A49CA"/><path d="M116.24 31.03l-1.38-3.38 13.35-5.07-11.97 8.45z" fill="#0B43A4"/><path d="M116.91 28.94l11.3-6.36-7.86 7.98-3.44-1.62zM111.8 26.27l16.41-3.7-13.35 5.08-3.06-1.38z" fill="#5193F4"/><path d="M116.91 28.94l-.67 2.09 2.04-1.44-1.37-.65z" fill="#0056EC"/><path d="M114.67 30.58c-3.49-.6-8.22 2.93-6.18 6.6.69 1.25 4.26.71 4-.67-.13-.66-.94-.94-1.6-.87-3.9.45-4.06 3.71-3.88 4.55.89 4.3 7.47 2.84 9.68 2.23" stroke="#C8DBFB" stroke-miterlimit="10" stroke-linecap="round" stroke-linejoin="round" stroke-dasharray="4 4"/></g><defs><clipPath id="clip0"><path fill="#fff" d="M0 0h280v239H0z"/></clipPath></defs></svg>